<?xml version="1.0" encoding="UTF-8" standalone="no"?>
<!DOCTYPE svg PUBLIC "-//W3C//DTD SVG 1.1//EN" "http://www.w3.org/Graphics/SVG/1.1/DTD/svg11.dtd">
<svg version="1.1" xmlns="http://www.w3.org/2000/svg" xmlns:xlink="http://www.w3.org/1999/xlink" preserveAspectRatio="xMidYMid meet" viewBox="0 0 640 640" width="1080" height="1080"><defs><path d="M590.25 279.79C587.24 285.26 583.83 290.47 580.03 295.37C546.51 338.89 484.17 362.71 427.83 401.3C261.52 515.2 243.51 332.69 251.02 220.22C254.05 174.84 270.7 133.27 297.15 101.44C302.71 94.75 308.71 88.48 315.11 82.7C345.14 55.56 383.94 39.13 427.83 39.13C503.12 39.13 567.42 87.33 592.92 155.26C600.67 175.93 604.64 197.97 604.63 220.22C604.63 243.78 599.37 263.18 590.25 279.79Z" id="hqHKycXyB"></path><path d="M465.5 79.94C364.49 92.84 308.38 100.01 297.15 101.44C302.71 94.75 308.71 88.48 315.11 82.7C335.16 82.33 385.29 81.41 465.5 79.94Z" id="awp9rbnjm"></path><path d="M590.25 279.79C587.24 285.26 583.83 290.47 580.03 295.37C570.42 294.14 522.35 288 435.83 276.96C518.19 278.47 569.66 279.41 590.25 279.79Z" id="bguKPkUgC"></path><path d="M354.41 140.29C497.51 149.27 577.02 154.26 592.92 155.26C595.21 161.36 597.17 167.6 598.8 173.93C598.8 173.93 517.34 162.72 354.41 140.29Z" id="a29S8cWkV"></path><path d="M267.55 88.73C266.84 99.06 258.37 106.83 248.64 106.08C238.9 105.32 231.59 96.34 232.3 86.01C232.47 83.42 233.16 80.9 234.3 78.61C234.68 77.84 235.11 77.1 235.6 76.39C241.3 67.99 252.34 66.09 260.26 72.15C264.46 75.36 267.11 80.37 267.53 85.84C267.58 86.34 267.6 86.85 267.6 87.37C267.6 87.83 267.58 88.28 267.55 88.73Z" id="b1vm2ReS4d"></path><path d="M267.55 88.73C265.78 88.51 256.96 87.38 241.09 85.36C256.96 85.65 265.77 85.81 267.53 85.84C267.58 86.34 267.6 86.85 267.6 87.37C267.6 87.83 267.58 88.28 267.55 88.73Z" id="bK5OjF20L"></path><path d="M261.29 96.82C246.6 98.7 238.44 99.74 236.81 99.95C236.11 99.13 235.49 98.24 234.94 97.3C238.45 97.24 247.23 97.08 261.29 96.82Z" id="c6GhJIap2"></path><path d="M254.34 76.05C242.31 77.59 235.63 78.44 234.3 78.61C234.68 77.84 235.11 77.1 235.6 76.39C238.1 76.35 244.34 76.23 254.34 76.05Z" id="c22rwMJ4Lg"></path><path d="M509.16 426.28C503.97 435.05 493.06 437.7 484.8 432.19C476.53 426.68 474.04 415.1 479.23 406.33C480.53 404.13 482.24 402.25 484.26 400.79C484.93 400.3 485.65 399.86 486.39 399.48C495.14 394.9 505.73 398.72 510.04 408C512.33 412.93 512.47 418.67 510.43 423.71C510.24 424.18 510.03 424.64 509.81 425.1C509.6 425.5 509.39 425.9 509.16 426.28Z" id="e4q8Hoq5NY"></path><path d="M509.16 426.28C507.7 425.2 500.41 419.82 487.28 410.13C501.17 418.28 508.88 422.81 510.43 423.71C510.24 424.18 510.03 424.64 509.81 425.1C509.6 425.5 509.39 425.9 509.16 426.28Z" id="a2UCc93F5v"></path><path d="M500.06 430.3C486.25 424.66 478.59 421.52 477.05 420.89C476.8 419.82 476.64 418.72 476.57 417.62C479.7 419.31 487.53 423.54 500.06 430.3Z" id="aAvsrjETm"></path><path d="M503.1 408.51C491.79 403.88 485.51 401.31 484.26 400.79C484.93 400.3 485.65 399.86 486.39 399.48C488.61 400.68 494.18 403.69 503.1 408.51Z" id="a16X0sesvK"></path><path d="M635.84 102.75C642.13 110.68 641.18 122.51 633.71 129.18C626.25 135.86 615.1 134.84 608.81 126.92C607.24 124.94 606.07 122.63 605.38 120.15C605.14 119.31 604.97 118.46 604.85 117.6C603.41 107.35 610.07 97.81 619.72 96.28C624.83 95.47 630.03 97.08 633.93 100.69C634.29 101.02 634.64 101.37 634.98 101.74C635.28 102.07 635.57 102.4 635.84 102.75Z" id="b22LiwmwX3"></path><path d="M635.84 102.75C634.43 103.9 627.38 109.63 614.68 119.94C626.23 108.39 632.65 101.97 633.93 100.69C634.29 101.02 634.64 101.37 634.98 101.74C635.28 102.07 635.57 102.4 635.84 102.75Z" id="b4g3bXdkJV"></path><path d="M636.68 113.18C627.4 125.41 622.25 132.2 621.21 133.56C620.18 133.49 619.15 133.32 618.14 133.05C620.61 130.4 626.79 123.78 636.68 113.18Z" id="e1R15iOGQi"></path><path d="M618.05 103.46C610.45 113.47 606.22 119.03 605.38 120.15C605.14 119.31 604.97 118.46 604.85 117.6C606.61 115.71 611.01 111 618.05 103.46Z" id="n1OTHqVfN"></path><path d="M303.42 447.42C303.42 447.42 342.2 449.14 342.2 459.43C342.2 459.43 298.57 459.43 298.57 459.43C299.54 457.03 302.45 449.82 303.42 447.42Z" id="c2ANTc4Rq0"></path><path d="M172.52 600.07L169.29 558.91L153.13 594.93C110.46 588.75 86.76 585.32 82.02 584.64C83.64 519.46 109.5 456 111.11 447.42C112.73 438.85 116.59 403.41 116.59 403.41C123.65 387.51 160.66 386.02 189.67 387.46C201.69 388.04 212.35 389.14 218.93 389.93C223.28 390.44 225.85 390.82 225.85 390.82C237.43 403.5 244.9 420.77 249.49 440.06C266.04 509.58 245.24 605.22 245.24 605.22C235.54 604.53 211.3 602.82 172.52 600.07Z" id="b6MgwkDpb"></path><path d="M164.44 121.54C142.13 121.54 124.04 140.74 124.04 164.42C124.04 188.1 142.13 207.3 164.44 207.3C186.75 207.3 204.84 188.1 204.84 164.42C204.84 140.74 186.75 121.54 164.44 121.54Z" id="bmPrN5t25"></path><path d="M107.88 243.32C90.1 258.75 177.37 243.32 177.37 243.32C177.37 243.32 157.98 209.01 172.52 193.58C187.06 178.14 136.97 174.71 136.97 174.71C131.15 188.43 125.66 227.88 107.88 243.32Z" id="aqN2EZWPg"></path><path d="M219.38 394.25L192.57 397.41C147.57 402.72 122.58 405.67 117.58 406.26C117.58 406.26 117.22 405.25 116.59 403.41C111.14 387.65 84.92 310.94 82.02 287.91C78.79 262.18 112.73 231.31 112.73 231.31C112.73 231.31 145.05 224.45 154.74 224.45C164.44 224.45 203.22 239.88 203.22 239.88C204.19 249.09 209.01 295.12 217.69 377.97L218.93 389.93L219.38 394.25Z" id="i2mIfkOrp"></path><path d="M195.14 406.26C195.14 406.26 194.19 402.96 192.57 397.41C191.77 394.63 190.78 391.27 189.67 387.46C183.4 366.09 172.87 330.82 164.44 305.06C151.51 265.61 214.54 375.38 214.54 375.38C214.75 375.56 215.8 376.42 217.69 377.97C218.43 385.15 218.85 389.13 218.93 389.93C223.28 390.44 225.85 390.82 225.85 390.82C237.43 403.5 244.9 420.77 249.49 440.06C238.62 433.3 200.58 409.64 195.14 406.26Z" id="b5i86JFSY5"></path><path d="M174.14 305.06C174.14 305.06 204.84 406.26 204.84 406.26C211.09 410.14 242.33 429.58 298.57 464.57L311.5 447.42C259.14 404.2 230.05 380.19 224.23 375.38C224.23 375.38 221 245.03 204.84 239.88C188.68 234.74 177.37 243.32 177.37 243.32C176.72 255.66 161.21 265.61 174.14 305.06Z" id="b1jzklHsA"></path><path d="M97.38 393.39C97.38 393.39 120 443.13 129.7 437.99C139.39 432.84 105.46 381.39 105.46 381.39C103.84 383.79 98.99 390.99 97.38 393.39Z" id="b4zmiTYPR8"></path><path d="M94.95 257.04C43.56 302.32 15.01 327.47 9.3 332.5C9.3 332.5 -23.02 356.52 36.78 373.67C96.57 390.82 101.42 401.11 101.42 401.11C101.42 401.11 107.88 378.81 115.96 382.24C111.33 379.84 88.16 367.84 46.47 346.23L103.03 310.21L94.95 257.04Z" id="c1CSfhZP7M"></path><path d="M83.41 186.74C82.81 168.05 84.98 151.08 91.33 142.09C94.89 133.5 102.37 124.9 108.23 118.13C122.62 101.51 154.44 92.23 160.09 100.54C202.77 101.43 207.26 136.94 207.26 136.94C207.04 151.8 192.5 152.27 179.75 151.72C180.9 161.87 177.86 172.4 169.05 177.07C152.21 186.01 147.16 197.63 155.58 205.67C164 213.71 179.15 235.16 158.95 240.52C138.74 245.88 136.22 256.6 142.11 261.07C148 265.54 128.64 253.03 128.64 253.03C128.64 253.03 125.27 274.47 107.59 269.11C106.01 268.63 104.42 267.4 102.87 265.56C98.09 271.13 93.83 274.42 90.62 274.44C72.24 274.54 74.44 252.93 74.44 252.93C74.44 252.93 52.62 259.43 59.43 256.81C66.24 254.2 66.53 243.15 48.43 232.21C30.34 221.26 50.38 204.95 60.53 199.61C65.02 197.25 74.95 192.48 83.41 186.74Z" id="ayjbtTx7F"></path><path d="M285.83 255.6C286.26 257.33 286.5 258.29 286.54 258.48C287.22 262.51 288.2 266.47 289.48 270.33C291.58 278.79 308.35 346.48 310.45 354.94C311.82 360.46 316.14 364.59 321.45 365.47C325.73 366.17 359.95 371.79 364.22 372.49C369.89 373.42 375.5 370.45 378.2 365.09C382.27 357.03 414.78 292.57 418.85 284.51C420.12 282.28 421.28 279.98 422.32 277.62C422.42 277.43 422.88 276.52 423.7 274.88C423.57 274.86 423.5 274.85 423.49 274.85C438.94 236.05 421.84 191.3 385.28 174.9C348.73 158.5 306.56 176.66 291.11 215.46C286.06 228.13 284.34 242.01 286.12 255.64C286.12 255.64 286.03 255.63 285.83 255.6Z" id="c6Oo6Qu1cI"></path><path d="M364.6 377.83C360.13 377.1 324.36 371.23 319.89 370.49C314.09 369.54 309.37 365.03 307.88 359C305.69 350.16 288.15 279.4 285.96 270.55C284.62 266.5 283.59 262.35 282.88 258.12C282.82 257.73 282.38 254.64 282.32 254.25C277.01 210.2 306.34 169.92 347.85 164.28C354.89 163.32 362.03 163.42 369.04 164.57C369.03 164.71 368.87 165.76 368.85 165.9C328.17 159.24 290.11 188.85 283.85 232.02C282.74 239.61 282.69 247.33 283.68 254.94C283.73 255.23 284.07 257.54 284.11 257.83C284.81 262.02 285.84 266.14 287.16 270.16C289.36 279.01 306.91 349.81 309.1 358.66C310.46 364.17 314.78 368.3 320.09 369.17C324.56 369.9 360.32 375.78 364.79 376.51C370.45 377.43 376.04 374.47 378.75 369.12C378.86 369.18 379.75 369.69 379.86 369.75C377.29 374.84 372.29 378.01 366.85 378.02C366.1 378.02 365.34 377.96 364.6 377.83Z" id="a5ysmiFBuf"></path><path d="M378.19 274.87C378.19 274.87 378.19 274.87 378.19 274.87C379.11 275.23 379.62 275.43 379.72 275.47C379.72 275.47 379.72 275.47 379.72 275.47C363.4 322.77 354.33 349.04 352.52 354.3C352.52 354.3 352.52 354.3 352.52 354.3C351.6 353.94 351.09 353.74 350.99 353.7C350.99 353.7 350.99 353.7 350.99 353.7C367.31 306.4 376.38 280.13 378.19 274.87Z" id="aRAu2wi9m"></path><path d="M333.77 267.58C333.77 267.58 333.77 267.58 333.77 267.58C335.86 317.9 337.01 345.86 337.25 351.45C337.25 351.45 337.25 351.45 337.25 351.45C336.27 351.49 335.72 351.52 335.62 351.52C335.62 351.52 335.62 351.52 335.62 351.52C333.53 301.2 332.37 273.25 332.14 267.65C332.14 267.65 332.14 267.65 332.14 267.65C333.12 267.61 333.67 267.58 333.77 267.58Z" id="a3pjG1TEL"></path><path d="M305.78 408.71C304.89 408.56 304.29 407.67 304.43 406.72C304.57 405.79 305.4 405.15 306.28 405.29C312.01 406.23 357.84 413.75 363.57 414.69C364.46 414.83 365.08 415.71 364.94 416.66C364.81 417.61 363.98 418.26 363.09 418.12C363.08 418.12 363.08 418.12 363.07 418.12C351.61 416.24 311.51 409.65 305.78 408.71Z" id="cvaGLIkxT"></path><path d="M307.25 395.8C306.36 395.66 305.75 394.78 305.88 393.83C306.01 392.88 306.84 392.23 307.73 392.37C307.74 392.37 307.75 392.37 307.75 392.37C313.48 393.31 359.31 400.84 365.04 401.78C365.93 401.92 366.54 402.8 366.41 403.75C366.28 404.7 365.45 405.35 364.56 405.21C364.55 405.21 364.54 405.21 364.54 405.21C364.54 405.21 312.98 396.74 307.25 395.8Z" id="a38ObHwGJZ"></path><path d="M308.72 382.89C307.83 382.74 307.23 381.85 307.37 380.9C307.51 379.96 308.34 379.32 309.22 379.46C314.95 380.4 360.78 387.93 366.51 388.87C367.4 389.02 368 389.91 367.86 390.85C367.72 391.79 366.89 392.43 366.01 392.29C366.01 392.29 314.45 383.83 308.72 382.89Z" id="bI8HSrYu"></path><path d="M355.41 414C351.29 413.32 318.37 407.91 314.26 407.24C313.05 415.53 321.28 423.76 332.65 425.63C344.01 427.5 354.2 422.29 355.41 414Z" id="bp2VmkXp"></path><path d="M347.66 254.44C347.3 253.99 346.95 253.52 346.59 253.05C345.3 251.35 344.08 249.73 342.38 248.89C338.64 247.04 334.22 249.63 330.4 252.41C330.3 252.27 329.57 251.13 329.47 250.98C333.68 247.92 338.58 245.1 343.07 247.32C345.11 248.33 346.51 250.18 347.86 251.97C348.21 252.42 348.55 252.87 348.9 253.31C350.06 254.74 352.35 257.06 354.82 256.52C355.86 256.2 356.82 255.66 357.66 254.93C358.29 254.42 358.96 253.97 359.66 253.58C362.57 252.1 366.03 252.62 368.44 254.9C368.86 255.32 369.26 255.77 369.63 256.24C370.37 257.12 371.06 257.96 371.96 258.27C373.3 258.72 374.71 257.91 376.2 257.06C377.74 256.17 379.34 255.26 381.15 255.49C381.2 255.49 381.26 255.5 381.32 255.51C384.54 256.04 386.02 259.81 386.86 262.63C386.7 262.68 385.46 263.1 385.3 263.15C384.16 259.32 382.77 257.42 380.95 257.21C379.66 257.05 378.36 257.79 376.98 258.58C375.25 259.57 373.46 260.59 371.47 259.92C370.13 259.47 369.25 258.41 368.41 257.38C368.07 256.96 367.71 256.56 367.34 256.18C365.42 254.4 362.69 253.99 360.39 255.13C359.76 255.49 359.16 255.89 358.6 256.34C357.58 257.22 356.41 257.86 355.15 258.22C354.52 258.35 353.87 258.37 353.24 258.26C350.79 257.86 348.77 255.81 347.66 254.44Z" id="d39tkyVkve"></path></defs><g><g><g><use xlink:href="#hqHKycXyB" opacity="1" fill="#ff5959" fill-opacity="1"></use><g><use xlink:href="#hqHKycXyB" opacity="1" fill-opacity="0" stroke="#000000" stroke-width="1" stroke-opacity="0"></use></g></g><g><use xlink:href="#awp9rbnjm" opacity="1" fill="#b1d2d5" fill-opacity="1"></use><g><use xlink:href="#awp9rbnjm" opacity="1" fill-opacity="0" stroke="#000000" stroke-width="1" stroke-opacity="0"></use></g></g><g><use xlink:href="#bguKPkUgC" opacity="1" fill="#b1d2d5" fill-opacity="1"></use><g><use xlink:href="#bguKPkUgC" opacity="1" fill-opacity="0" stroke="#000000" stroke-width="1" stroke-opacity="0"></use></g></g><g><use xlink:href="#a29S8cWkV" opacity="1" fill="#b1d2d5" fill-opacity="1"></use><g><use xlink:href="#a29S8cWkV" opacity="1" fill-opacity="0" stroke="#000000" stroke-width="1" stroke-opacity="0"></use></g></g><g><use xlink:href="#b1vm2ReS4d" opacity="1" fill="#ff5959" fill-opacity="1"></use><g><use xlink:href="#b1vm2ReS4d" opacity="1" fill-opacity="0" stroke="#000000" stroke-width="1" stroke-opacity="0"></use></g></g><g><use xlink:href="#bK5OjF20L" opacity="1" fill="#d0cde1" fill-opacity="1"></use><g><use xlink:href="#bK5OjF20L" opacity="1" fill-opacity="0" stroke="#000000" stroke-width="1" stroke-opacity="0"></use></g></g><g><use xlink:href="#c6GhJIap2" opacity="1" fill="#b1d2d5" fill-opacity="1"></use><g><use xlink:href="#c6GhJIap2" opacity="1" fill-opacity="0" stroke="#000000" stroke-width="1" stroke-opacity="0"></use></g></g><g><use xlink:href="#c22rwMJ4Lg" opacity="1" fill="#d0cde1" fill-opacity="1"></use><g><use xlink:href="#c22rwMJ4Lg" opacity="1" fill-opacity="0" stroke="#000000" stroke-width="1" stroke-opacity="0"></use></g></g><g><use xlink:href="#e4q8Hoq5NY" opacity="1" fill="#ff5959" fill-opacity="1"></use><g><use xlink:href="#e4q8Hoq5NY" opacity="1" fill-opacity="0" stroke="#000000" stroke-width="1" stroke-opacity="0"></use></g></g><g><use xlink:href="#a2UCc93F5v" opacity="1" fill="#d0cde1" fill-opacity="1"></use><g><use xlink:href="#a2UCc93F5v" opacity="1" fill-opacity="0" stroke="#000000" stroke-width="1" stroke-opacity="0"></use></g></g><g><use xlink:href="#aAvsrjETm" opacity="1" fill="#d0cde1" fill-opacity="1"></use><g><use xlink:href="#aAvsrjETm" opacity="1" fill-opacity="0" stroke="#000000" stroke-width="1" stroke-opacity="0"></use></g></g><g><use xlink:href="#a16X0sesvK" opacity="1" fill="#d0cde1" fill-opacity="1"></use><g><use xlink:href="#a16X0sesvK" opacity="1" fill-opacity="0" stroke="#000000" stroke-width="1" stroke-opacity="0"></use></g></g><g><use xlink:href="#b22LiwmwX3" opacity="1" fill="#ff5959" fill-opacity="1"></use><g><use xlink:href="#b22LiwmwX3" opacity="1" fill-opacity="0" stroke="#000000" stroke-width="1" stroke-opacity="0"></use></g></g><g><use xlink:href="#b4g3bXdkJV" opacity="1" fill="#d0cde1" fill-opacity="1"></use><g><use xlink:href="#b4g3bXdkJV" opacity="1" fill-opacity="0" stroke="#000000" stroke-width="1" stroke-opacity="0"></use></g></g><g><use xlink:href="#e1R15iOGQi" opacity="1" fill="#d0cde1" fill-opacity="1"></use><g><use xlink:href="#e1R15iOGQi" opacity="1" fill-opacity="0" stroke="#000000" stroke-width="1" stroke-opacity="0"></use></g></g><g><use xlink:href="#n1OTHqVfN" opacity="1" fill="#d0cde1" fill-opacity="1"></use><g><use xlink:href="#n1OTHqVfN" opacity="1" fill-opacity="0" stroke="#000000" stroke-width="1" stroke-opacity="0"></use></g></g><g><use xlink:href="#c2ANTc4Rq0" opacity="1" fill="#7e7e7e" fill-opacity="1"></use><g><use xlink:href="#c2ANTc4Rq0" opacity="1" fill-opacity="0" stroke="#000000" stroke-width="1" stroke-opacity="0"></use></g></g><g><use xlink:href="#b6MgwkDpb" opacity="1" fill="#4f9da6" fill-opacity="1"></use><g><use xlink:href="#b6MgwkDpb" opacity="1" fill-opacity="0" stroke="#000000" stroke-width="1" stroke-opacity="0"></use></g></g><g><use xlink:href="#bmPrN5t25" opacity="1" fill="#7e7e7e" fill-opacity="1"></use><g><use xlink:href="#bmPrN5t25" opacity="1" fill-opacity="0" stroke="#000000" stroke-width="1" stroke-opacity="0"></use></g></g><g><use xlink:href="#aqN2EZWPg" opacity="1" fill="#7e7e7e" fill-opacity="1"></use><g><use xlink:href="#aqN2EZWPg" opacity="1" fill-opacity="0" stroke="#000000" stroke-width="1" stroke-opacity="0"></use></g></g><g><use xlink:href="#i2mIfkOrp" opacity="1" fill="#c0dcde" fill-opacity="1"></use><g><use xlink:href="#i2mIfkOrp" opacity="1" fill-opacity="0" stroke="#000000" stroke-width="1" stroke-opacity="0"></use></g></g><g><use xlink:href="#b5i86JFSY5" opacity="1" fill="#cccccc" fill-opacity="1"></use><g><use xlink:href="#b5i86JFSY5" opacity="1" fill-opacity="0" stroke="#000000" stroke-width="1" stroke-opacity="0"></use></g></g><g><use xlink:href="#b1jzklHsA" opacity="1" fill="#c0dcde" fill-opacity="1"></use><g><use xlink:href="#b1jzklHsA" opacity="1" fill-opacity="0" stroke="#000000" stroke-width="1" stroke-opacity="0"></use></g></g><g><use xlink:href="#b4zmiTYPR8" opacity="1" fill="#7e7e7e" fill-opacity="1"></use><g><use xlink:href="#b4zmiTYPR8" opacity="1" fill-opacity="0" stroke="#000000" stroke-width="1" stroke-opacity="0"></use></g></g><g><use xlink:href="#c1CSfhZP7M" opacity="1" fill="#c0dcde" fill-opacity="1"></use><g><use xlink:href="#c1CSfhZP7M" opacity="1" fill-opacity="0" stroke="#000000" stroke-width="1" stroke-opacity="0"></use></g></g><g><use xlink:href="#ayjbtTx7F" opacity="1" fill="#66a0a7" fill-opacity="1"></use><g><use xlink:href="#ayjbtTx7F" opacity="1" fill-opacity="0" stroke="#000000" stroke-width="1" stroke-opacity="0"></use></g></g><g><use xlink:href="#c6Oo6Qu1cI" opacity="1" fill="#4f9da6" fill-opacity="1"></use><g><use xlink:href="#c6Oo6Qu1cI" opacity="1" fill-opacity="0" stroke="#000000" stroke-width="1" stroke-opacity="0"></use></g></g><g><use xlink:href="#a5ysmiFBuf" opacity="1" fill="#d0cde1" fill-opacity="1"></use><g><use xlink:href="#a5ysmiFBuf" opacity="1" fill-opacity="0" stroke="#000000" stroke-width="1" stroke-opacity="0"></use></g></g><g><use xlink:href="#aRAu2wi9m" opacity="1" fill="#d0cde1" fill-opacity="1"></use><g><use xlink:href="#aRAu2wi9m" opacity="1" fill-opacity="0" stroke="#000000" stroke-width="1" stroke-opacity="0"></use></g></g><g><use xlink:href="#a3pjG1TEL" opacity="1" fill="#d0cde1" fill-opacity="1"></use><g><use xlink:href="#a3pjG1TEL" opacity="1" fill-opacity="0" stroke="#000000" stroke-width="1" stroke-opacity="0"></use></g></g><g><use xlink:href="#cvaGLIkxT" opacity="1" fill="#4f9da6" fill-opacity="1"></use><g><use xlink:href="#cvaGLIkxT" opacity="1" fill-opacity="0" stroke="#000000" stroke-width="1" stroke-opacity="0"></use></g></g><g><use xlink:href="#a38ObHwGJZ" opacity="1" fill="#4f9da6" fill-opacity="1"></use><g><use xlink:href="#a38ObHwGJZ" opacity="1" fill-opacity="0" stroke="#000000" stroke-width="1" stroke-opacity="0"></use></g></g><g><use xlink:href="#bI8HSrYu" opacity="1" fill="#4f9da6" fill-opacity="1"></use><g><use xlink:href="#bI8HSrYu" opacity="1" fill-opacity="0" stroke="#000000" stroke-width="1" stroke-opacity="0"></use></g></g><g><use xlink:href="#bp2VmkXp" opacity="1" fill="#4f9da6" fill-opacity="1"></use><g><use xlink:href="#bp2VmkXp" opacity="1" fill-opacity="0" stroke="#000000" stroke-width="1" stroke-opacity="0"></use></g></g><g><use xlink:href="#d39tkyVkve" opacity="1" fill="#d0cde1" fill-opacity="1"></use><g><use xlink:href="#d39tkyVkve" opacity="1" fill-opacity="0" stroke="#000000" stroke-width="1" stroke-opacity="0"></use></g></g></g></g></svg>